<?xml version="1.0" encoding="UTF-8" standalone="no"?>
<!-- Uploaded to: SVG Repo, www.svgrepo.com, Generator: SVG Repo Mixer Tools -->

<svg
   width="800"
   height="800"
   viewBox="0 -207 512 512"
   version="1.1"
   preserveAspectRatio="xMidYMid"
   id="svg7"
   xmlns="http://www.w3.org/2000/svg"
   xmlns:svg="http://www.w3.org/2000/svg">
  <defs
     id="defs7" />
  <g
     id="g7">
    <path
       d="m 265.14936,30.142862 c 13.88617,0 22.00259,10.84802 22.00259,24.329062 0,13.51233 -8.11642,24.32894 -22.00259,24.32894 -6.74784,0 -11.66954,-2.854604 -14.14705,-6.026566 v 20.68602 H 238.0288 V 31.221313 h 11.96292 v 5.677836 c 2.99886,-4.250453 8.4098,-6.756287 15.15764,-6.756287 z M 152.09122,17.0496 c 17.94845,0 27.03929,12.185072 28.67079,22.775792 v 0 h -13.79922 c -1.63149,-6.377204 -7.52924,-10.818479 -14.98819,-10.818479 -9.90679,0 -17.03984,7.857656 -17.03984,19.017874 0,11.046197 7.13305,18.903772 17.03984,18.903772 7.45895,0 13.3567,-4.441397 14.98819,-10.818641 v 0 h 13.79922 c -1.6315,10.591085 -10.72234,22.775872 -28.67079,22.775872 -17.83222,0 -30.18646,-13.779301 -30.18646,-30.861003 0,-17.195804 12.35424,-30.975187 30.18646,-30.975187 z m 53.11797,13.093262 c 6.74743,0 12.12587,2.474139 15.15764,6.756287 v -5.677836 h 11.96292 v 46.5011 h -11.96292 v -5.677918 c -2.99926,4.250413 -8.41021,6.756369 -15.15764,6.756369 -13.88617,0 -22.00299,-10.848305 -22.00299,-24.32894 0,-13.512737 8.11682,-24.329062 22.00299,-24.329062 z m 107.01572,0 c 6.74743,0 12.12587,2.474139 15.15724,6.756287 v -5.677836 h 11.96292 v 46.5011 h -11.96292 v -5.677918 c -2.99886,4.250413 -8.40981,6.756369 -15.15724,6.756369 -13.88617,0 -22.00259,-10.848305 -22.00259,-24.32894 0,-13.512737 8.11642,-24.329062 22.00259,-24.329062 z m 54.7901,0 c 14.86385,0 21.90466,10.21375 22.81732,18.111919 h -13.33191 c -1.01059,-3.996851 -4.82418,-6.914845 -9.58334,-6.914845 -6.94288,0 -10.95233,5.328864 -10.95233,13.131988 0,7.803124 4.00945,13.131987 10.95233,13.131987 4.75916,0 8.57275,-2.9184 9.58334,-6.914844 h 13.33191 c -0.91266,7.898209 -7.95347,18.111797 -22.81732,18.111797 -13.88617,0 -23.99126,-10.467556 -23.99126,-24.32894 0,-13.861587 10.10509,-24.329062 23.99126,-24.329062 z m 89.85559,0 c 15.31937,0 25.10019,11.101989 25.10019,24.329062 0,13.227073 -9.78082,24.32894 -25.10019,24.32894 -15.31936,0 -25.10019,-11.101867 -25.10019,-24.32894 0,-13.227073 9.78083,-24.329062 25.10019,-24.329062 z m 53.58121,0.603185 c 0.45105,0 1.54819,0.09513 1.54819,0.09513 v 11.831589 c 0,0 -1.35314,-0.253968 -2.5153,-0.253968 -7.47276,0 -11.37372,3.647796 -11.37372,12.180317 V 77.786209 H 485.2866 V 31.190105 h 11.82476 v 6.026728 c 1.70667,-2.759599 5.31912,-6.470786 13.34045,-6.470786 z M 423.95225,19.646822 v 11.545965 h 9.97588 v 10.277181 h -9.97588 V 77.757359 H 410.98159 V 19.646822 Z m -18.7713,11.54373 V 77.723225 H 392.20744 V 31.190552 Z M 207.94717,41.244851 c -7.20375,0 -11.76746,5.677917 -11.76746,13.227073 0,7.549155 4.56371,13.227073 11.76746,13.227073 7.20417,0 11.76764,-5.677918 11.76764,-13.227073 0.0323,-7.549156 -4.53096,-13.227073 -11.76764,-13.227073 z m 54.4638,0 c -7.20376,0 -11.76764,5.677917 -11.76764,13.227073 -0.0323,7.549155 4.53137,13.227073 11.76764,13.227073 7.20417,0 11.76747,-5.677918 11.76747,-13.227073 0,-7.549156 -4.5633,-13.227073 -11.76747,-13.227073 z m 52.55192,0 c -7.20375,0 -11.76706,5.677917 -11.76706,13.227073 0,7.549155 4.56331,13.227073 11.76706,13.227073 7.20417,0 11.76764,-5.677918 11.76764,-13.227073 0.0323,-7.549156 -4.53096,-13.227073 -11.76764,-13.227073 z m 141.90771,0 c -6.84698,0 -12.12546,4.884724 -12.12546,13.227073 0,8.342349 5.27848,13.227073 12.12546,13.227073 6.84699,0 12.12546,-4.884724 12.12546,-13.227073 0,-8.342349 -5.27847,-13.227073 -12.12546,-13.227073 z M 398.69399,12.190476 c 4.56371,0 7.85433,3.203698 7.85433,7.644445 0,4.440746 -3.29062,7.549277 -7.85433,7.549277 -4.5633,0 -7.85554,-3.108531 -7.85554,-7.549277 0,-4.440747 3.29224,-7.644445 7.85554,-7.644445 z"
       fill="#000000"
       id="path1"
       style="fill:#ffffff" />
    <g
       id="g6">
      <polygon
         fill="#53b9ff"
         points="23.354758,59.007594 0,82.432406 15.020292,97.525435 38.422105,74.094121 61.697219,97.358019 76.764648,82.271492 15.185757,20.615071 0.11832157,35.701516 "
         id="polygon1" />
      <polygon
         fill="#119eff"
         points="61.697625,97.358425 76.765054,82.271898 53.530413,59.008 38.422634,74.094121 "
         id="polygon2" />
      <polygon
         fill-opacity="0.2"
         fill="#000000"
         points="44.238425,79.877689 53.530413,59.008 38.422634,74.094121 "
         id="polygon3" />
      <polygon
         fill="#53b9ff"
         points="82.449879,0 59.05473,23.384218 35.777747,0.11847355 20.710319,15.204937 82.289371,76.861359 97.3568,61.774832 74.121752,38.470542 97.523809,15.039228 "
         id="polygon4" />
      <polygon
         fill="#119eff"
         points="35.777747,0.11904772 20.710319,15.205506 43.946667,38.471152 59.05473,23.384787 "
         id="polygon5" />
      <polygon
         fill-opacity="0.2"
         fill="#000000"
         points="53.237029,17.599187 43.94626,38.470624 59.054324,23.3843 "
         id="polygon6" />
    </g>
  </g>
</svg>
