<?xml version="1.0" encoding="UTF-8" standalone="no"?>
<!-- Uploaded to: SVG Repo, www.svgrepo.com, Generator: SVG Repo Mixer Tools -->

<svg
   width="800"
   height="800"
   viewBox="0 0 20 20"
   version="1.1"
   id="svg1"
   xmlns="http://www.w3.org/2000/svg"
   xmlns:svg="http://www.w3.org/2000/svg">
  <defs
     id="defs1" />
  <rect
     x="0"
     fill="none"
     width="20"
     height="20"
     id="rect1"
     y="0" />
  <g
     id="g1"
     style="fill:#ffffff">
    <path
       d="M 4,16 V 14 H 2 v 2 H 1 v -5 h 1 v 2 h 2 v -2 h 1 v 5 z m 3,0 V 12 H 5.6 v -1 h 3.7 v 1 H 8 v 4 z m 3,0 v -5 h 1 l 1.4,3.4 h 0.1 L 14,11 h 1 v 5 h -1 v -3.1 h -0.1 l -1.1,2.5 H 12.2 L 11.1,12.9 H 11 V 16 Z m 9,0 h -3 v -5 h 1 v 4 h 2 z M 9.4,4.2 7.1,6.5 9.4,8.8 8.8,10 5.3,6.5 8.8,3 Z M 10.6,8.8 12.9,6.5 10.6,4.2 11.2,3 14.7,6.5 11.2,10 Z"
       id="path1"
       style="fill:#ffffff" />
  </g>
</svg>
